<svg xmlns="http://www.w3.org/2000/svg" id="Layer_1" viewBox="0 0 50 50" width="50" height="50"><path d="M15 48h.385s4.565-4.405 6.133-6.119c.524-.572.645-.864 1.482-.881 2.14-.043 4.28-.123 6.417-.24 2.801-.153 5.561-.424 8.162-1.51 2.251-.94 4.038-2.41 5.147-4.659 1.191-2.416 1.83-4.979 2.07-7.663.408-4.559.261-9.074-.979-13.504-.698-2.493-2.063-4.528-4.195-5.997-2.588-1.783-5.554-2.477-8.57-2.927-3.519-.524-7.054-.686-10.613-.25-2.582.316-5.088.84-7.465 1.932-3.77 1.732-6.302 4.517-7.07 8.732a58.604 58.604 0 0 0-.774 5.69c-.303 3.686-.112 7.351.916 10.927.799 2.78 2.213 5.153 4.694 6.713.896.563 2.393.935 3.354 1.381.61.282.915.629.906 1.375-.028 2.366 0 7 0 7z" fill="none" stroke="#000" stroke-width="2" stroke-miterlimit="10"/><path d="M12 16.118c.051-2.35 1.853-3.671 3.673-4.072.696-.154 1.311.092 1.828.585a16.076 16.076 0 0 1 3.408 4.716c.373.777.205 1.466-.429 2.044a5.56 5.56 0 0 1-.411.339c-1.446 1.088-1.659 1.91-.888 3.547 1.314 2.786 3.49 4.656 6.308 5.816.743.306 1.441.155 2.009-.447.076-.081.162-.158.218-.251 1.111-1.853 2.722-1.669 4.209-.612.977.695 1.927 1.426 2.893 2.135 1.472 1.081 1.459 2.097.564 3.56-.654 1.069-1.633 1.809-2.786 2.291-.842.352-1.702.278-2.532-.074-6.968-2.948-12.43-7.595-16.042-14.274-.744-1.376-1.262-2.874-1.855-4.328-.122-.297-.115-.648-.167-.975z"/><path d="M30 21a4 4 0 0 0-4-4m6.905 5A6.857 6.857 0 0 0 25 14.095" fill="none" stroke="#000" stroke-width="2" stroke-linecap="round" stroke-miterlimit="10"/><path d="M35.734 23a9.867 9.867 0 0 0 .243-2.182c0-5.422-4.396-9.818-9.818-9.818-.75 0-1.48.084-2.182.243" fill="none" stroke="#000" stroke-width="2" stroke-linecap="round" stroke-miterlimit="10"/></svg>